HIERARCHY
ROOT Hips
{
	OFFSET 0.000000 71.427986 0.000000
	CHANNELS 6 Xposition Yposition Zposition Xrotation Yrotation Zrotation
	JOINT Pelvis
	{
		OFFSET 0.000000 0.000000 0.000000
		CHANNELS 3 Xrotation Yrotation Zrotation
		JOINT LeftUpLeg
		{
			OFFSET 6.797100 -2.508499 -1.318700
			CHANNELS 3 Xrotation Yrotation Zrotation
			JOINT LeftLeg
			{
				OFFSET 0.069008 -29.241863 0.690200
				CHANNELS 3 Xrotation Yrotation Zrotation
				JOINT LeftFoot
				{
					OFFSET -0.069008 -29.568123 -0.266800
					CHANNELS 3 Xrotation Yrotation Zrotation
					JOINT LeftToeBase
					{
						OFFSET 3.145500 -8.631000 16.059900
						CHANNELS 3 Xrotation Yrotation Zrotation
						End Site
						{
							OFFSET 0.000000 18.501587 0.000000
						}
					}
				}
			}
			JOINT Left_ShortSleeve
			{
				OFFSET 0.265923 -10.480953 1.153800
				CHANNELS 3 Xrotation Yrotation Zrotation
				End Site
				{
					OFFSET 1.725763 19.823879 0.000000
				}
			}
		}
		JOINT RightUpLeg
		{
			OFFSET -6.797100 -2.508499 -1.318700
			CHANNELS 3 Xrotation Yrotation Zrotation
			JOINT RightLeg
			{
				OFFSET -0.082453 -29.241932 0.688000
				CHANNELS 3 Xrotation Yrotation Zrotation
				JOINT RightFoot
				{
					OFFSET 0.082453 -29.568058 -0.264600
					CHANNELS 3 Xrotation Yrotation Zrotation
					JOINT RightToeBase
					{
						OFFSET -3.115300 -8.682800 16.113400
						CHANNELS 3 Xrotation Yrotation Zrotation
						End Site
						{
							OFFSET 0.000000 18.567114 0.000000
						}
					}
				}
			}
			JOINT Right_ShortSleeve
			{
				OFFSET -0.265923 -10.480953 1.153800
				CHANNELS 3 Xrotation Yrotation Zrotation
				End Site
				{
					OFFSET -1.725766 19.823910 0.000000
				}
			}
		}
	}
	JOINT Spine
	{
		OFFSET 0.000000 13.368103 0.470500
		CHANNELS 3 Xrotation Yrotation Zrotation
		JOINT Spine1
		{
			OFFSET 0.147000 13.837402 0.538800
			CHANNELS 3 Xrotation Yrotation Zrotation
			JOINT Spine2
			{
				OFFSET 0.168000 16.242897 -1.435500
				CHANNELS 3 Xrotation Yrotation Zrotation
				JOINT Neck
				{
					OFFSET 0.217200 18.631500 -1.679100
					CHANNELS 3 Xrotation Yrotation Zrotation
					JOINT Head
					{
						OFFSET 0.000000 6.599396 1.385900
						CHANNELS 3 Xrotation Yrotation Zrotation
						JOINT Hat
						{
							OFFSET -0.532200 27.220596 -10.096100
							CHANNELS 3 Xrotation Yrotation Zrotation
							End Site
							{
								OFFSET 0.000000 22.029861 0.000000
							}
						}
						JOINT HairD
						{
							OFFSET -10.777400 17.437393 -1.325900
							CHANNELS 3 Xrotation Yrotation Zrotation
							JOINT HairD1
							{
								OFFSET -3.290299 -11.051193 1.062200
								CHANNELS 3 Xrotation Yrotation Zrotation
								End Site
								{
									OFFSET 0.000000 11.579437 0.000000
								}
							}
						}
						JOINT HairB
						{
							OFFSET -10.777400 17.437393 1.467900
							CHANNELS 3 Xrotation Yrotation Zrotation
							JOINT HairB1
							{
								OFFSET -1.561200 -12.956299 3.590200
								CHANNELS 3 Xrotation Yrotation Zrotation
								End Site
								{
									OFFSET 0.000000 13.534866 0.000000
								}
							}
						}
						JOINT HairA
						{
							OFFSET 9.713100 17.437393 1.467900
							CHANNELS 3 Xrotation Yrotation Zrotation
							JOINT HairA1
							{
								OFFSET 1.561200 -12.956299 3.590200
								CHANNELS 3 Xrotation Yrotation Zrotation
								End Site
								{
									OFFSET 0.000000 13.534866 0.000000
								}
							}
						}
						JOINT HairC
						{
							OFFSET 9.713100 17.437393 -1.325900
							CHANNELS 3 Xrotation Yrotation Zrotation
							JOINT HairC1
							{
								OFFSET 3.290300 -11.051193 1.062200
								CHANNELS 3 Xrotation Yrotation Zrotation
								End Site
								{
									OFFSET 0.000000 11.579437 0.000000
								}
							}
						}
					}
				}
				JOINT LeftShoulder
				{
					OFFSET 5.101800 15.108002 -2.763700
					CHANNELS 3 Xrotation Yrotation Zrotation
					JOINT LeftArm
					{
						OFFSET 9.825497 2.506317 -1.597400
						CHANNELS 3 Xrotation Yrotation Zrotation
						JOINT LeftForeArm
						{
							OFFSET 21.966244 0.000000 0.000000
							CHANNELS 3 Xrotation Yrotation Zrotation
							JOINT LeftHand
							{
								OFFSET 33.879036 0.000000 0.000000
								CHANNELS 3 Xrotation Yrotation Zrotation
								JOINT LeftHandThumb1
								{
									OFFSET 6.715286 -2.359680 3.363841
									CHANNELS 3 Xrotation Yrotation Zrotation
									JOINT LeftHandThumb2
									{
										OFFSET 2.507072 -1.447464 1.447461
										CHANNELS 3 Xrotation Yrotation Zrotation
										JOINT LeftHandThumb3
										{
											OFFSET 2.898338 -1.673355 1.673357
											CHANNELS 3 Xrotation Yrotation Zrotation
											End Site
											{
												OFFSET -0.295959 3.727692 -0.131651
											}
										}
									}
								}
								JOINT LeftHandIndex1
								{
									OFFSET 14.190811 -0.254547 3.840278
									CHANNELS 3 Xrotation Yrotation Zrotation
									JOINT LeftHandIndex2
									{
										OFFSET 3.551727 0.000000 -0.000000
										CHANNELS 3 Xrotation Yrotation Zrotation
										JOINT LeftHandIndex3
										{
											OFFSET 2.894196 0.000000 0.000000
											CHANNELS 3 Xrotation Yrotation Zrotation
											End Site
											{
												OFFSET -1.000603 2.690872 0.366626
											}
										}
									}
								}
								JOINT LeftHandMiddle1
								{
									OFFSET 13.776489 0.000000 0.000000
									CHANNELS 3 Xrotation Yrotation Zrotation
									JOINT LeftHandMiddle2
									{
										OFFSET 3.438232 0.000000 0.000000
										CHANNELS 3 Xrotation Yrotation Zrotation
										JOINT LeftHandMiddle3
										{
											OFFSET 3.691551 0.000000 0.000000
											CHANNELS 3 Xrotation Yrotation Zrotation
											End Site
											{
												OFFSET -1.082298 3.499527 0.457670
											}
										}
									}
								}
								JOINT LeftHandRing1
								{
									OFFSET 13.966164 -0.268127 -3.067488
									CHANNELS 3 Xrotation Yrotation Zrotation
									JOINT LeftHandRing2
									{
										OFFSET 3.162567 0.000000 0.000000
										CHANNELS 3 Xrotation Yrotation Zrotation
										JOINT LeftHandRing3
										{
											OFFSET 3.324348 0.000000 0.000000
											CHANNELS 3 Xrotation Yrotation Zrotation
											End Site
											{
												OFFSET -0.861900 3.184998 0.405154
											}
										}
									}
								}
								JOINT LeftHandPinky1
								{
									OFFSET 13.131393 -0.168503 -5.746925
									CHANNELS 3 Xrotation Yrotation Zrotation
									JOINT LeftHandPinky2
									{
										OFFSET 2.849182 0.000000 0.000000
										CHANNELS 3 Xrotation Yrotation Zrotation
										JOINT LeftHandPinky3
										{
											OFFSET 2.805038 0.000000 0.000000
											CHANNELS 3 Xrotation Yrotation Zrotation
											End Site
											{
												OFFSET -0.882500 2.642609 0.325652
											}
										}
									}
								}
							}
							JOINT Left_Sleeve
							{
								OFFSET 6.592125 -0.646545 0.805568
								CHANNELS 3 Xrotation Yrotation Zrotation
								End Site
								{
									OFFSET -0.000179 20.275787 -0.000000
								}
							}
						}
					}
				}
				JOINT RightShoulder
				{
					OFFSET -5.731700 15.108002 -2.763700
					CHANNELS 3 Xrotation Yrotation Zrotation
					JOINT RightArm
					{
						OFFSET -9.825497 2.506317 -1.597400
						CHANNELS 3 Xrotation Yrotation Zrotation
						JOINT RightForeArm
						{
							OFFSET -21.966242 0.000000 0.000000
							CHANNELS 3 Xrotation Yrotation Zrotation
							JOINT RightHand
							{
								OFFSET -33.879032 0.000000 0.000000
								CHANNELS 3 Xrotation Yrotation Zrotation
								JOINT RightHandThumb1
								{
									OFFSET -6.715286 -2.359680 3.363841
									CHANNELS 3 Xrotation Yrotation Zrotation
									JOINT RightHandThumb2
									{
										OFFSET -2.507072 -1.447464 1.447461
										CHANNELS 3 Xrotation Yrotation Zrotation
										JOINT RightHandThumb3
										{
											OFFSET -2.898338 -1.673355 1.673357
											CHANNELS 3 Xrotation Yrotation Zrotation
											End Site
											{
												OFFSET 0.295959 3.727692 -0.131651
											}
										}
									}
								}
								JOINT RightHandIndex1
								{
									OFFSET -14.190811 -0.254547 3.840278
									CHANNELS 3 Xrotation Yrotation Zrotation
									JOINT RightHandIndex2
									{
										OFFSET -3.551727 0.000000 -0.000000
										CHANNELS 3 Xrotation Yrotation Zrotation
										JOINT RightHandIndex3
										{
											OFFSET -2.894196 0.000000 0.000000
											CHANNELS 3 Xrotation Yrotation Zrotation
											End Site
											{
												OFFSET 1.000603 2.690872 0.366626
											}
										}
									}
								}
								JOINT RightHandMiddle1
								{
									OFFSET -13.776489 0.000000 0.000000
									CHANNELS 3 Xrotation Yrotation Zrotation
									JOINT RightHandMiddle2
									{
										OFFSET -3.438232 0.000000 0.000000
										CHANNELS 3 Xrotation Yrotation Zrotation
										JOINT RightHandMiddle3
										{
											OFFSET -3.691551 0.000000 0.000000
											CHANNELS 3 Xrotation Yrotation Zrotation
											End Site
											{
												OFFSET 1.082298 3.499527 0.457670
											}
										}
									}
								}
								JOINT RightHandRing1
								{
									OFFSET -13.966164 -0.268127 -3.067488
									CHANNELS 3 Xrotation Yrotation Zrotation
									JOINT RightHandRing2
									{
										OFFSET -3.162567 0.000000 0.000000
										CHANNELS 3 Xrotation Yrotation Zrotation
										JOINT RightHandRing3
										{
											OFFSET -3.324348 0.000000 0.000000
											CHANNELS 3 Xrotation Yrotation Zrotation
											End Site
											{
												OFFSET 0.861900 3.184998 0.405154
											}
										}
									}
								}
								JOINT RightHandPinky1
								{
									OFFSET -13.131393 -0.168503 -5.746925
									CHANNELS 3 Xrotation Yrotation Zrotation
									JOINT RightHandPinky2
									{
										OFFSET -2.849182 0.000000 0.000000
										CHANNELS 3 Xrotation Yrotation Zrotation
										JOINT RightHandPinky3
										{
											OFFSET -2.805038 0.000000 0.000000
											CHANNELS 3 Xrotation Yrotation Zrotation
											End Site
											{
												OFFSET 0.882500 2.642609 0.325652
											}
										}
									}
								}
							}
							JOINT Right_Sleeve
							{
								OFFSET -6.592125 -0.646545 0.805568
								CHANNELS 3 Xrotation Yrotation Zrotation
								End Site
								{
									OFFSET 0.000179 20.275787 -0.000000
								}
							}
						}
					}
				}
				JOINT Bind_Right_JacketString
				{
					OFFSET -3.534800 11.969597 7.200700
					CHANNELS 3 Xrotation Yrotation Zrotation
					JOINT Bind_Right_JacketString1
					{
						OFFSET -0.319900 -6.102600 2.794100
						CHANNELS 3 Xrotation Yrotation Zrotation
						End Site
						{
							OFFSET 0.000000 6.719452 0.000000
						}
					}
				}
				JOINT Bind_Left_JacketString
				{
					OFFSET 2.904800 11.969597 7.200700
					CHANNELS 3 Xrotation Yrotation Zrotation
					JOINT Bind_Left_JacketString1
					{
						OFFSET 0.364800 -5.904503 3.186800
						CHANNELS 3 Xrotation Yrotation Zrotation
						End Site
						{
							OFFSET 0.000000 6.719513 0.000000
						}
					}
				}
				JOINT HairE
				{
					OFFSET 5.915200 17.612701 -11.592200
					CHANNELS 3 Xrotation Yrotation Zrotation
					JOINT HairE1
					{
						OFFSET 0.289200 -7.171898 -1.284500
						CHANNELS 3 Xrotation Yrotation Zrotation
						End Site
						{
							OFFSET 0.000000 7.291756 0.000000
						}
					}
				}
				JOINT HairF
				{
					OFFSET -0.864800 17.612701 -11.592200
					CHANNELS 3 Xrotation Yrotation Zrotation
					JOINT HairF1
					{
						OFFSET 0.000000 -14.087097 -2.127501
						CHANNELS 3 Xrotation Yrotation Zrotation
						End Site
						{
							OFFSET 0.000000 14.246841 0.000000
						}
					}
				}
				JOINT HairG
				{
					OFFSET -8.087700 17.612701 -11.592200
					CHANNELS 3 Xrotation Yrotation Zrotation
					JOINT HairG1
					{
						OFFSET -0.293600 -6.081398 -0.910100
						CHANNELS 3 Xrotation Yrotation Zrotation
						End Site
						{
							OFFSET 0.000000 6.156120 0.000000
						}
					}
				}
			}
		}
	}
	JOINT Pouch
	{
		OFFSET 0.000000 4.394501 10.847300
		CHANNELS 3 Xrotation Yrotation Zrotation
		End Site
		{
			OFFSET 0.000000 21.880577 0.000000
		}
	}
	JOINT Bag
	{
		OFFSET -13.229000 4.813004 -0.593300
		CHANNELS 3 Xrotation Yrotation Zrotation
		End Site
		{
			OFFSET 0.000000 21.880577 0.000000
		}
	}
	JOINT OccupyGuyFacialAnim_Joint
	{
		OFFSET 1.000000 -70.206398 -1.655000
		CHANNELS 3 Xrotation Yrotation Zrotation
		End Site
		{
			OFFSET 0.000000 21.880577 0.000000
		}
	}
}
MOTION
Frames: 4
Frame Time: 0.033333
0.205024 26.896317 1.663958 20.752265 5.607996 2.633701 -0.000001 0.000000 -0.000000 -136.737587 -6.335202 26.155552 121.344144 -1.100622 -0.079051 -2.123340 -0.053389 2.159020 -0.000000 -0.000000 0.000000 -0.000003 0.000000 -0.000000 -141.743733 9.206527 -20.807673 133.384237 -5.585646 -0.181614 -11.323339 -4.089075 -8.374344 0.000000 -0.000000 0.000000 0.000001 0.000000 0.000001 40.901591 4.342846 -0.626427 6.207746 0.731995 1.236456 6.292784 0.544134 1.254940 -4.832693 -0.242737 1.061241 -41.321241 -14.513179 -3.750093 -0.000001 0.000001 -0.000000 -0.000001 0.000001 -0.000000 -0.000001 0.000001 -0.000000 -0.000001 0.000001 -0.000000 -0.000001 0.000000 -0.000000 -0.000001 0.000001 -0.000000 -0.000001 0.000000 -0.000000 -0.000001 0.000001 -0.000000 -0.000001 0.000001 -0.000000 4.362854 -19.778570 26.469814 -71.904017 -16.480734 -34.445607 -0.031180 -90.129551 -0.031898 -26.240098 -17.266020 19.708876 8.844549 -52.822354 -8.507661 29.592167 42.778154 -24.733162 -0.000001 -0.000000 -0.000003 4.498516 -2.603159 -43.954750 2.400657 4.728278 -53.816478 -0.000005 -0.000004 0.000001 2.123858 6.812293 -50.307410 3.480933 5.351042 -66.067074 0.000002 0.000002 -0.000001 0.404093 5.477349 -51.927490 3.829647 5.491940 -69.756770 -0.000001 0.000001 -0.000002 2.204796 14.138303 -53.842815 2.339404 4.683018 -53.069679 -0.000003 0.000001 -0.000004 0.000000 0.000001 0.000002 4.852568 4.116819 -16.033671 -86.146369 27.751130 48.879935 0.000003 52.814475 0.000001 -27.010205 1.402109 -4.312800 56.689464 42.973829 -26.597947 31.936469 -45.719217 25.028521 -0.000000 0.000000 0.000000 -3.879709 6.593733 94.018674 4.107385 -4.624667 83.213165 -0.000001 -0.000000 0.000000 -3.670052 -5.994461 83.254535 4.204594 -4.635167 84.417388 0.000001 -0.000000 0.000001 -4.912342 -6.193613 85.356027 4.492045 -4.654255 87.965535 0.000000 -0.000001 -0.000003 -2.499707 -7.749893 86.308074 3.201122 -4.424166 71.762305 0.000002 0.000003 -0.000001 0.000001 -0.000002 0.000000 0.000000 0.000000 0.000000 0.000000 -0.000001 -0.000000 0.000000 0.000000 -0.000000 0.000000 0.000000 -0.000000 0.000000 0.000000 0.000000 0.000000 -0.000001 -0.000000 0.000000 0.000000 -0.000000 0.000000 0.000000 -0.000000 0.000000 0.000000 0.000000 0.000000 -0.000001 -0.000000 -0.000001 0.000000 -0.000000 -0.000001 0.000000 -0.000000 -0.000001 0.000000 -0.000000 
0.199619 26.836533 1.667406 20.751371 5.552563 2.632484 -0.000001 -0.000000 0.000000 -136.872264 -6.401025 26.209186 121.422896 -1.122606 -0.054569 -2.073980 -0.052607 2.184139 0.000000 -0.000000 -0.000000 0.000002 0.000000 -0.000002 -141.924788 9.206364 -20.727481 133.449179 -5.670569 -0.181315 -11.161742 -4.054153 -8.334226 0.000000 -0.000001 0.000000 0.000000 -0.000001 0.000001 41.087689 4.089350 -0.668023 6.226044 0.666622 1.222500 6.309747 0.478047 1.252818 -4.902429 -0.177850 0.947124 -41.485886 -14.205041 -3.629413 -0.000001 0.000000 -0.000000 -0.000001 0.000000 -0.000000 -0.000001 0.000000 0.000000 -0.000001 0.000000 -0.000000 -0.000000 -0.000000 0.000000 -0.000001 0.000000 -0.000000 -0.000000 -0.000000 0.000000 -0.000001 0.000000 -0.000000 -0.000001 0.000000 -0.000000 4.611801 -20.635511 25.852737 -70.699329 -17.176375 -33.813415 -0.001651 -88.736937 -0.001509 -25.311416 -19.008686 21.821773 8.938792 -48.181633 -6.980650 29.684415 42.614711 -24.848532 0.000005 -0.000003 0.000001 4.827592 -2.718569 -49.990844 2.651299 4.901163 -56.802104 0.000001 0.000001 -0.000005 2.562919 7.151297 -56.462947 3.722652 5.451456 -68.634720 0.000001 -0.000000 0.000004 0.710793 6.020053 -58.228175 4.072931 5.575242 -72.279234 -0.000002 0.000001 -0.000002 2.490556 13.623341 -59.943052 2.555746 4.837521 -55.676308 -0.000000 0.000001 -0.000002 0.000001 -0.000003 -0.000002 4.369346 3.126263 -16.853917 -88.106647 26.315319 49.925585 0.000029 53.337197 -0.000023 -28.218776 -2.260307 -5.067605 56.987267 43.830345 -27.160358 31.519482 -45.410789 24.792840 0.000003 -0.000001 0.000000 -3.594798 6.642223 90.838599 3.865874 -4.589569 80.207424 0.000001 0.000001 -0.000001 -3.667897 -5.605539 80.433892 3.997055 -4.610254 81.842482 0.000000 -0.000001 0.000001 -5.085700 -5.702944 82.466830 4.284121 -4.642255 85.400478 -0.000000 -0.000001 -0.000002 -2.438198 -7.985494 83.515517 3.003626 -4.354335 69.182201 0.000001 0.000003 -0.000003 0.000000 -0.000000 0.000000 0.000001 0.000001 -0.000000 -0.000000 0.000001 -0.000000 0.000001 0.000001 -0.000000 0.000001 0.000001 -0.000000 0.000001 0.000001 -0.000000 -0.000000 0.000001 -0.000000 0.000001 0.000001 -0.000000 0.000001 0.000001 -0.000000 0.000001 0.000001 -0.000000 -0.000000 0.000001 -0.000000 -0.000001 -0.000000 0.000000 -0.000001 -0.000000 0.000000 -0.000001 -0.000000 0.000000 
0.191869 26.770294 1.671291 20.751358 5.473960 2.627697 -0.000001 0.000000 -0.000000 -137.022816 -6.503762 26.266604 121.515540 -1.143231 -0.026333 -2.006283 -0.052176 2.191720 -0.000000 -0.000001 0.000000 -0.000002 -0.000000 0.000002 -142.123478 9.180357 -20.635052 133.514598 -5.743255 -0.180959 -10.990161 -4.016558 -8.308549 0.000000 -0.000002 0.000000 -0.000002 -0.000000 -0.000000 41.298005 3.813202 -0.751448 6.244652 0.599738 1.202638 6.327035 0.410596 1.242342 -5.065827 -0.109130 0.848820 -41.645327 -13.835203 -3.449343 0.000001 -0.000000 0.000000 0.000001 -0.000000 0.000000 0.000001 -0.000000 0.000000 0.000001 -0.000000 -0.000000 0.000001 0.000000 -0.000000 0.000001 -0.000000 -0.000000 0.000001 0.000000 -0.000000 0.000001 -0.000000 0.000000 0.000001 -0.000000 0.000000 4.716583 -21.174184 25.238135 -70.035448 -17.926716 -33.829165 0.000362 -87.109180 0.000392 -25.187987 -20.239292 22.876385 8.976033 -43.316278 -5.492336 29.806324 42.449305 -24.977659 -0.000002 -0.000000 0.000001 5.112248 -2.983562 -56.461028 2.937553 5.076277 -60.093043 0.000001 -0.000002 0.000003 2.963355 7.414997 -62.967876 3.986026 5.546831 -71.382328 0.000001 -0.000000 -0.000003 1.045029 6.539175 -64.893040 4.336809 5.652391 -74.976073 0.000000 0.000002 -0.000002 2.704659 12.951149 -66.338267 2.795238 4.992062 -58.471112 0.000004 -0.000001 -0.000001 0.000003 -0.000000 0.000000 3.855814 2.279693 -17.400055 -89.990734 25.188428 50.727279 0.000006 53.792514 -0.000012 -29.873612 -5.800636 -5.434641 56.855796 44.734068 -27.469414 31.057799 -45.058140 24.546742 -0.000001 -0.000001 0.000000 -3.210820 6.697561 87.150516 3.594382 -4.534511 76.794412 -0.000000 0.000000 0.000000 -3.584606 -5.196918 77.295837 3.767961 -4.571647 78.980995 0.000003 0.000001 -0.000002 -5.173713 -5.162264 79.256135 4.053783 -4.618010 82.547651 0.000001 0.000000 -0.000002 -2.332928 -8.263525 80.407439 2.787730 -4.266252 66.310099 0.000002 0.000000 -0.000001 0.000002 0.000000 0.000000 0.000000 0.000000 0.000000 0.000000 0.000001 0.000000 0.000000 0.000000 -0.000000 0.000000 0.000000 -0.000000 0.000000 0.000000 0.000000 0.000000 0.000001 0.000000 0.000000 0.000000 -0.000000 0.000000 0.000000 -0.000000 0.000000 0.000000 0.000000 0.000000 0.000001 0.000000 -0.000001 0.000000 -0.000000 -0.000001 0.000000 -0.000000 -0.000001 0.000000 -0.000000 
0.182631 26.700966 1.675257 20.751617 5.386414 2.622033 0.000001 0.000000 -0.000000 -137.169268 -6.649864 26.289991 121.616108 -1.150481 0.006935 -1.930023 -0.052971 2.148294 -0.000000 0.000001 0.000000 0.000003 0.000000 -0.000000 -142.328042 9.141771 -20.538854 133.580414 -5.789425 -0.180383 -10.821608 -3.980214 -8.300691 0.000000 -0.000000 -0.000000 -0.000002 0.000000 0.000001 41.505963 3.500415 -0.846574 6.262117 0.524023 1.181286 6.343103 0.334141 1.227910 -5.078128 -0.038274 0.805487 -41.730455 -13.394765 -3.195864 -0.000001 -0.000000 0.000000 -0.000001 -0.000000 0.000000 -0.000001 -0.000000 0.000000 -0.000001 -0.000000 0.000000 -0.000002 0.000000 -0.000000 -0.000001 -0.000000 0.000000 -0.000002 0.000000 -0.000000 -0.000001 -0.000000 0.000000 -0.000001 -0.000000 0.000000 4.959276 -22.063167 24.761451 -69.000039 -18.475636 -33.333925 0.000873 -85.392459 0.000876 -24.363087 -21.759308 24.602478 8.858755 -38.590378 -4.201337 29.950291 42.287559 -25.114358 0.000001 -0.000001 0.000001 5.284917 -3.411663 -62.788433 3.235201 5.235585 -63.404147 0.000000 -0.000002 0.000001 3.240549 7.595365 -69.250386 4.246251 5.627403 -74.054885 -0.000001 0.000000 0.000001 1.360889 6.996180 -71.345390 4.596304 5.715405 -77.595764 0.000000 0.000002 -0.000001 2.778216 12.167290 -72.452010 3.035893 5.131348 -61.198031 -0.000001 0.000000 -0.000002 -0.000003 0.000005 0.000004 3.312793 1.646016 -17.674846 -91.443474 24.582609 51.061552 0.000028 54.271382 -0.000015 -30.592134 -9.095828 -5.643841 56.313598 45.679766 -27.511176 30.562907 -44.669062 24.296264 -0.000001 0.000000 0.000000 -2.741820 6.738125 83.047799 3.301193 -4.455803 73.055136 -0.000000 -0.000001 -0.000002 -3.414593 -4.794815 73.913418 3.523555 -4.517383 75.897103 0.000001 0.000000 -0.000004 -5.157425 -4.600040 75.797519 3.807144 -4.579113 79.472106 0.000000 -0.000002 -0.000001 -2.182467 -8.583676 77.059868 2.559886 -4.159134 63.209419 -0.000003 0.000001 0.000001 0.000003 0.000000 0.000000 -0.000001 0.000001 -0.000000 -0.000001 -0.000000 0.000000 -0.000001 0.000001 -0.000000 -0.000001 0.000001 -0.000000 -0.000001 0.000001 -0.000000 -0.000001 -0.000000 0.000000 -0.000001 0.000001 -0.000000 -0.000001 0.000001 -0.000000 -0.000001 0.000001 -0.000000 -0.000001 -0.000000 0.000000 0.000001 0.000000 -0.000000 0.000001 0.000000 -0.000000 0.000001 0.000000 -0.000000 
